<svg xmlns="http://www.w3.org/2000/svg" viewBox="0 0 32 32">
  <path fill="#1b1b1b" d="M0 16V0h32v32H0Z"/>
  <path fill="#afd42a" d="M8.075 20.932V19.92h4.05v2.025h-4.05Zm0 4.05V23.97h4.05v2.026h-4.05Zm0 4.05v-1.013h4.05v2.025h-4.05Z"/>
  <path fill="#fb1161" d="M2 20.932V19.92h4.05v2.025H2Zm0 4.05V23.97h4.05v2.026H2Zm0 4.05v-1.013h4.05v2.025H2Z"/>
  <path fill="#585858" d="M0 16.2v-2.025h32v4.05H0ZM0 2.024V0h32v4.05H0Z"/>
  <path fill="#65d7fd" d="M14.27 29.057v-.943h3.905V30H14.27zm0-8.08v-.942h3.905v1.885H14.27zm0 4.04v-.942h3.905v1.885H14.27z"/>
  <path fill="#c6c6c6" d="M20.33 29.057v-.943h3.904V30H20.33zm0-4.04v-.942h7.944v1.885H20.33zm0-4.04v-.942h5.924v1.885H20.33z"/>
  <path fill="#afd42a" d="M10.1 7.013V6h8.1v2.025h-8.1z"/>
  <path fill="#c6c6c6" d="M2.016 7.016v-1.01h6.06v2.02h-6.06z"/>
  <path fill="#afd42a" d="M10.1 11.063V10.05h8.1v2.025h-8.1z"/>
  <path fill="#c6c6c6" d="M2.016 11.066v-1.01h6.06v2.02h-6.06z"/>
</svg>
